<?xml version="1.0" standalone="no"?>
<!DOCTYPE svg PUBLIC "-//W3C//DTD SVG 20010904//EN"
 "http://www.w3.org/TR/2001/REC-SVG-20010904/DTD/svg10.dtd">
<svg version="1.0" xmlns="http://www.w3.org/2000/svg"
 width="500.000000pt" height="500.000000pt" viewBox="0 0 500.000000 500.000000"
 preserveAspectRatio="xMidYMid meet">

<g transform="translate(0.000000,500.000000) scale(0.100000,-0.100000)"
fill="#000000" stroke="none">
<path d="M835 4880 c-4 -6 5 -10 22 -11 15 0 -15 -9 -67 -20 -108 -23 -215
-63 -301 -114 -66 -38 -76 -35 -27 9 l33 28 -35 -20 c-164 -97 -307 -323 -340
-537 -7 -48 -10 -596 -8 -1760 l3 -1690 23 -73 c84 -272 282 -471 552 -554
l75 -23 1692 -3 c1149 -2 1693 1 1693 8 0 5 -8 10 -17 11 -10 0 25 10 77 21
107 22 214 62 301 113 69 41 79 30 14 -16 -52 -38 -60 -51 -12 -20 168 106
293 273 349 467 l23 79 0 1725 c0 1946 7 1765 -80 1945 -79 163 -196 279 -360
360 -176 87 3 79 -1907 83 -1148 2 -1699 -1 -1703 -8z m1182 -362 c27 -30 39
-55 47 -99 9 -48 2 -62 -45 -95 -47 -32 -38 -44 31 -44 l45 0 25 -83 26 -82
752 -3 752 -2 0 -870 c0 -479 2 -870 5 -870 2 0 19 9 37 20 39 24 107 26 147
6 38 -20 86 -76 117 -138 26 -52 57 -176 52 -212 -1 -12 10 -42 25 -68 35 -59
47 -100 47 -164 0 -154 -112 -283 -267 -309 -29 -5 -66 0 -122 14 -107 28
-134 27 -209 -9 -35 -16 -93 -37 -129 -45 -36 -8 -93 -31 -127 -49 -68 -38
-153 -66 -202 -66 -28 0 -35 -6 -53 -43 -12 -24 -21 -57 -21 -75 0 -122 283
-186 329 -74 18 44 1 69 -55 83 -29 8 -42 15 -36 21 14 14 107 11 131 -4 28
-17 44 -61 36 -98 -17 -79 -101 -125 -225 -125 -138 1 -255 57 -294 141 l-19
41 -61 -31 c-55 -28 -70 -31 -156 -31 -82 0 -103 4 -153 27 -66 31 -161 116
-188 170 -24 48 -24 104 1 145 19 31 19 32 0 86 -42 120 -47 222 -15 324 l7
23 -451 0 -451 0 0 811 0 811 -47 -6 c-27 -3 -82 -8 -123 -11 l-75 -6 -31 106
-31 106 33 26 c38 28 36 43 -4 43 -38 0 -67 48 -82 135 -14 83 -49 205 -63
223 -5 7 -8 14 -6 16 33 29 449 290 472 296 18 5 84 13 147 20 63 6 167 17
230 24 182 21 223 20 247 -6z"/>
<path d="M1794 3868 c-32 -23 -61 -43 -63 -44 -2 -2 6 -15 17 -31 26 -38 45
-99 39 -129 -2 -13 -3 -24 0 -24 2 0 33 23 68 51 73 57 80 80 46 154 -31 69
-40 71 -107 23z"/>
<path d="M1940 3000 l0 -690 160 0 160 0 2 287 3 287 160 -184 c88 -101 200
-230 249 -287 l88 -103 170 0 c158 0 170 1 162 18 -4 9 -8 39 -10 66 -2 48 -6
54 -131 195 -70 80 -179 204 -242 276 -63 71 -123 140 -134 152 l-20 22 79 92
c44 51 108 127 144 168 36 42 125 147 198 234 l133 157 -195 0 c-157 0 -197
-3 -203 -14 -4 -8 -107 -131 -228 -275 l-220 -261 -3 275 -2 275 -160 0 -160
0 0 -690z"/>
<path d="M3140 2363 c0 -18 38 -59 46 -50 4 4 -4 20 -19 35 -15 14 -27 22 -27
15z"/>
<path d="M3734 2326 c-61 -27 -79 -82 -50 -151 13 -31 6 -59 -9 -35 -16 25
-25 5 -25 -56 l0 -67 24 26 c31 34 96 50 175 44 l64 -5 -6 48 c-11 94 -68 188
-122 203 -11 4 -34 0 -51 -7z"/>
<path d="M3768 1989 c-28 -11 -68 -64 -68 -92 0 -13 6 -14 37 -5 40 11 101 47
121 71 11 13 8 16 -19 26 -37 13 -35 13 -71 0z"/>
<path d="M2373 1914 c-54 -27 -66 -56 -61 -143 3 -57 12 -91 33 -133 27 -55
30 -58 64 -58 39 0 72 -19 107 -59 19 -22 24 -23 54 -12 19 6 44 18 57 26 19
13 21 19 13 41 -14 37 -12 105 5 137 11 21 11 34 3 58 -6 18 -8 58 -5 95 l6
64 -60 0 -60 0 6 -44 c7 -46 0 -86 -16 -86 -5 0 -9 5 -9 12 0 27 -42 96 -66
106 -31 15 -32 15 -71 -4z"/>
<path d="M3523 1914 c-3 -8 0 -27 6 -41 9 -19 17 -24 34 -19 12 3 41 8 63 12
41 6 41 7 31 35 -11 27 -15 29 -70 29 -43 0 -59 -4 -64 -16z"/>
<path d="M3894 1819 c-67 -68 -145 -110 -274 -146 l-35 -10 40 -19 c58 -27
175 -25 232 4 59 30 86 73 91 143 2 31 0 59 -5 62 -5 4 -27 -12 -49 -34z"/>
<path d="M3410 1791 c0 -11 6 -21 13 -24 20 -7 37 4 37 24 0 14 -7 19 -25 19
-18 0 -25 -5 -25 -19z"/>
<path d="M3244 1766 c-8 -21 3 -36 27 -36 15 0 20 6 17 22 -4 27 -35 37 -44
14z"/>
<path d="M2320 1428 c0 -60 83 -134 184 -163 85 -25 144 -8 208 57 26 27 48
53 48 58 0 5 -26 0 -57 -12 -76 -27 -191 -30 -254 -5 -25 9 -61 33 -79 52 -40
41 -50 43 -50 13z"/>
<path d="M773 4873 c9 -2 23 -2 30 0 6 3 -1 5 -18 5 -16 0 -22 -2 -12 -5z"/>
<path d="M4198 123 c6 -2 18 -2 25 0 6 3 1 5 -13 5 -14 0 -19 -2 -12 -5z"/>
</g>
</svg>
